# xmcd
#
# Track frame offsets:
#	150
#	12629
#	46933
#	75973
#	105532
#
# Disc length: 1874 seconds
#
# Revision: 1
# Processed by: cddbd v1.5.2PL0 Copyright (c) Steve Scherf et al.
# Submitted via: audiograbber 1.83.01
#
DISCID=2e075005
DTITLE=ATB - 9 PM (Till I Come)
DYEAR=1999
DGENRE=Trance
TTITLE0=9 PM (Till I Come) - Radio UK
TTITLE1=9 PM (Till I Come) - Signum Remix
TTITLE2=9 PM (Till I Come) - Sequential One 1999 Remix
TTITLE3=9 PM (Till I Come) - Remixes Sequential One Remix
TTITLE4=9 PM (Till I Come) - Gary Ds Northern Light Remix
EXTD=
EXTT0=
EXTT1=
EXTT2=
EXTT3=
EXTT4=
PLAYORDER=
